<mxfile host="app.diagrams.net" modified="2025-09-29T09:32:00.000Z" agent="5.0" etag="template" version="24.7.17">
  <diagram name="Staging Deployment Flow" id="staging-flow">
    <mxGraphModel dx="1422" dy="794" grid="1" gridSize="10" guides="1" tooltips="1" connect="1" arrows="1" fold="1" page="1" pageScale="1" pageWidth="1169" pageHeight="827" math="0" shadow="0">
      <root>
        <mxCell id="0" />
        <mxCell id="1" parent="0" />
        
        <!-- Title -->
        <mxCell id="title" value="Staging Environment - Deployment Flow" style="text;html=1;strokeColor=none;fillColor=none;align=center;verticalAlign=middle;whiteSpace=wrap;rounded=0;fontSize=20;fontStyle=1;" vertex="1" parent="1">
          <mxGeometry x="350" y="20" width="469" height="30" as="geometry" />
        </mxCell>
        
        <!-- PR Merge -->
        <mxCell id="pr-merge" value="PR Merged to&#xa;Main Branch" style="rounded=1;whiteSpace=wrap;html=1;fillColor=#D5E8D4;strokeColor=#82B366;" vertex="1" parent="1">
          <mxGeometry x="80" y="110" width="100" height="40" as="geometry" />
        </mxCell>
        
        <!-- GitHub Actions -->
        <mxCell id="github-actions" value="GitHub Actions&#xa;Staging Workflow" style="rounded=1;whiteSpace=wrap;html=1;fillColor=#E1D5E7;strokeColor=#9673A6;" vertex="1" parent="1">
          <mxGeometry x="240" y="110" width="120" height="40" as="geometry" />
        </mxCell>
        
        <!-- Security Scan -->
        <mxCell id="security-scan" value="Security Scan&#xa;(Checkov)" style="rounded=1;whiteSpace=wrap;html=1;fillColor=#F8CECC;strokeColor=#B85450;" vertex="1" parent="1">
          <mxGeometry x="420" y="110" width="100" height="40" as="geometry" />
        </mxCell>
        
        <!-- Terraform Plan -->
        <mxCell id="tf-plan" value="Terraform Plan&#xa;(Staging)" style="rounded=1;whiteSpace=wrap;html=1;fillColor=#FFF2CC;strokeColor=#D6B656;" vertex="1" parent="1">
          <mxGeometry x="580" y="110" width="120" height="40" as="geometry" />
        </mxCell>
        
        <!-- Approval -->
        <mxCell id="approval" value="Staging Approval&#xa;Required" style="rounded=1;whiteSpace=wrap;html=1;fillColor=#FFE6CC;strokeColor=#D79B00;" vertex="1" parent="1">
          <mxGeometry x="760" y="110" width="100" height="40" as="geometry" />
        </mxCell>
        
        <!-- Deploy -->
        <mxCell id="deploy" value="Deploy to&#xa;Staging" style="rounded=1;whiteSpace=wrap;html=1;fillColor=#CCE5FF;strokeColor=#0066CC;" vertex="1" parent="1">
          <mxGeometry x="760" y="200" width="100" height="40" as="geometry" />
        </mxCell>
        
        <!-- Integration Tests -->
        <mxCell id="integration-tests" value="Integration Tests&#xa;& E2E Testing" style="rounded=1;whiteSpace=wrap;html=1;fillColor=#CCE5FF;strokeColor=#0066CC;" vertex="1" parent="1">
          <mxGeometry x="580" y="200" width="120" height="40" as="geometry" />
        </mxCell>
        
        <!-- Performance Tests -->
        <mxCell id="perf-tests" value="Performance&#xa;Testing" style="rounded=1;whiteSpace=wrap;html=1;fillColor=#CCE5FF;strokeColor=#0066CC;" vertex="1" parent="1">
          <mxGeometry x="420" y="200" width="100" height="40" as="geometry" />
        </mxCell>
        
        <!-- UAT -->
        <mxCell id="uat" value="User Acceptance&#xa;Testing" style="rounded=1;whiteSpace=wrap;html=1;fillColor=#E1D5E7;strokeColor=#9673A6;" vertex="1" parent="1">
          <mxGeometry x="240" y="200" width="120" height="40" as="geometry" />
        </mxCell>
        
        <!-- Ready for Prod -->
        <mxCell id="ready-prod" value="Ready for&#xa;Production" style="rounded=1;whiteSpace=wrap;html=1;fillColor=#D5E8D4;strokeColor=#82B366;" vertex="1" parent="1">
          <mxGeometry x="80" y="200" width="100" height="40" as="geometry" />
        </mxCell>
        
        <!-- Arrows -->
        <mxCell id="arrow1" style="edgeStyle=orthogonalEdgeStyle;rounded=0;orthogonalLoop=1;jettySize=auto;html=1;" edge="1" parent="1" source="pr-merge" target="github-actions">
          <mxGeometry relative="1" as="geometry" />
        </mxCell>
        
        <mxCell id="arrow2" style="edgeStyle=orthogonalEdgeStyle;rounded=0;orthogonalLoop=1;jettySize=auto;html=1;" edge="1" parent="1" source="github-actions" target="security-scan">
          <mxGeometry relative="1" as="geometry" />
        </mxCell>
        
        <mxCell id="arrow3" style="edgeStyle=orthogonalEdgeStyle;rounded=0;orthogonalLoop=1;jettySize=auto;html=1;" edge="1" parent="1" source="security-scan" target="tf-plan">
          <mxGeometry relative="1" as="geometry" />
        </mxCell>
        
        <mxCell id="arrow4" style="edgeStyle=orthogonalEdgeStyle;rounded=0;orthogonalLoop=1;jettySize=auto;html=1;" edge="1" parent="1" source="tf-plan" target="approval">
          <mxGeometry relative="1" as="geometry" />
        </mxCell>
        
        <mxCell id="arrow5" style="edgeStyle=orthogonalEdgeStyle;rounded=0;orthogonalLoop=1;jettySize=auto;html=1;" edge="1" parent="1" source="approval" target="deploy">
          <mxGeometry relative="1" as="geometry" />
        </mxCell>
        
        <mxCell id="arrow6" style="edgeStyle=orthogonalEdgeStyle;rounded=0;orthogonalLoop=1;jettySize=auto;html=1;" edge="1" parent="1" source="deploy" target="integration-tests">
          <mxGeometry relative="1" as="geometry" />
        </mxCell>
        
        <mxCell id="arrow7" style="edgeStyle=orthogonalEdgeStyle;rounded=0;orthogonalLoop=1;jettySize=auto;html=1;" edge="1" parent="1" source="integration-tests" target="perf-tests">
          <mxGeometry relative="1" as="geometry" />
        </mxCell>
        
        <mxCell id="arrow8" style="edgeStyle=orthogonalEdgeStyle;rounded=0;orthogonalLoop=1;jettySize=auto;html=1;" edge="1" parent="1" source="perf-tests" target="uat">
          <mxGeometry relative="1" as="geometry" />
        </mxCell>
        
        <mxCell id="arrow9" style="edgeStyle=orthogonalEdgeStyle;rounded=0;orthogonalLoop=1;jettySize=auto;html=1;" edge="1" parent="1" source="uat" target="ready-prod">
          <mxGeometry relative="1" as="geometry" />
        </mxCell>
        
      </root>
    </mxGraphModel>
  </diagram>
</mxfile>
